<svg xmlns="http://www.w3.org/2000/svg" viewBox="0 0 466.83 448.49" role="img" aria-label="Collab Digital Twins" preserveAspectRatio="xMidYMid meet">
<style>
svg{color-scheme:light dark;--t:2.6s;--tc:#ef9262}
.s{fill:none;stroke:currentColor;stroke-linecap:round;stroke-linejoin:round;stroke-width:62;stroke-dasharray:100}
.d{animation:dDraw var(--t) linear 1 normal forwards,wD var(--t) linear 1 normal forwards}
.t{animation:stemDraw var(--t) linear 1 normal forwards,wD var(--t) linear 1 normal forwards}
.hr{animation:tDraw var(--t) linear 1 normal forwards,wD var(--t) linear 1 normal forwards}
.hl{animation:tDraw var(--t) linear 1 normal forwards,hCol var(--t) linear 1 normal forwards,wD var(--t) linear 1 normal forwards}
.recon{animation:reconF var(--t) linear 1 normal forwards}
.real{opacity:0;animation:realF var(--t) linear 1 normal forwards}
.real .w{fill:currentColor}.real .tc{fill:var(--tc)}
@keyframes dDraw{0%{stroke-dashoffset:100}5%{stroke-dashoffset:96}40%{stroke-dashoffset:0}100%{stroke-dashoffset:0}}
@keyframes tDraw{0%,42%{stroke-dashoffset:100}58%{stroke-dashoffset:0}100%{stroke-dashoffset:0}}
@keyframes stemDraw{0%,42%{stroke-dashoffset:100}58%{stroke-dashoffset:28}62%{stroke-dashoffset:28}74%{stroke-dashoffset:0}100%{stroke-dashoffset:0}}
@keyframes hCol{0%,60%{stroke:currentColor}72%,100%{stroke:var(--tc)}}
@keyframes wD{0%,100%{stroke-width:62}}
@keyframes reconF{0%,62%{opacity:1}74%,100%{opacity:0}}
@keyframes realF{0%,62%{opacity:0}74%,100%{opacity:1}}
@media(prefers-reduced-motion:reduce){.recon{display:none}.real{opacity:1;animation:none}}
</style>
<g class="real"><path class="w" d="M450.47,199.92c6.06,6.07,9.09,14.01,9.09,21.95s-3.03,15.9-9.09,21.96l-195.57,195.56c-12.12,12.13-31.78,12.13-43.9,0l.07-.22c-.99-.76-1.95-1.61-2.86-2.52L9.1,237.53c-12.13-12.12-12.13-31.78,0-43.9l107.84-107.43c12.12-12.12,31.78-12.12,43.9,0,6.06,6.06,9.09,14.01,9.09,21.95s-3.03,15.89-9.09,21.95l-85.68,85.69,157.8,157.8.02-.07,152.28-152.28-121.22-121.22.21,119.39c0,10.42-3.46,19.86-9.06,26.69s-13.33,11.06-21.87,11.06c-17.08,0-30.92-16.9-30.92-37.75l-.31-188.49C202.09,13.84,218.82,0,239.45,0h181.34c10.32,0,20.82,3.98,27.58,9.57,6.76,5.6,10.94,13.33,10.94,21.87,0,17.08-16.72,30.93-37.36,30.93l-109.35-.32,136.34,136.34c.26.26.51.51.74.78h0c.27.24.53.49.79.75Z"/><path class="tc" d="M26.39,62.68l133.28.52c14.47,0,26.2-13.85,26.2-30.93h0c0-17.08-11.73-30.93-26.2-30.93L26.39.83c-14.47,0-26.2,13.85-26.2,30.93H.19c0,17.08,11.73,30.93,26.2,30.93Z"/></g>
<g class="recon">
<path class="s d" pathLength="100" d="M143,104 L31,216 L232,417 L428,221 L232,31"/>
<path class="s t" pathLength="100" d="M232,31 L232,257"/>
<path class="s hr" pathLength="100" d="M232,31 L412,31"/>
<path class="s hl" pathLength="100" d="M232,31 L31,31"/>
</g>
</svg>
