<svg viewBox="85.83493670886075 200.36981999999998 496.4962025316455 484.92864" xmlns="http://www.w3.org/2000/svg" data-name="cdt logo-stroke" id="cdt_logo-stroke" style="max-height: 500px" width="496.4962025316455" height="484.92864">
  <defs>
    <style>
      .cls-1 {
        fill: #fff;
      }

      .cls-2 {
        fill: none;
      }

      .cls-3 {
        fill: #ef9262;
      }

      .cls-4 {
        fill: #121111;
      }
    </style>
  </defs>
  <g>
    <path d="M336.52,673.86c-10.3,0-19.98-4.01-27.26-11.3-.25-.25-.47-.51-.68-.78-.72-.62-1.42-1.27-2.11-1.96l-199.11-199.12c-7.28-7.28-11.29-16.96-11.29-27.25s4.01-19.98,11.3-27.26l107.85-107.44c7.27-7.27,16.95-11.28,27.24-11.28s19.98,4.01,27.25,11.29c7.28,7.28,11.29,16.96,11.29,27.25s-4.01,19.98-11.29,27.25l-80.38,80.39,147.17,147.17,141.72-141.72-103.08-103.08.17,101.24c0,11.83-3.82,23-10.76,31.46-7.3,8.9-17.13,13.8-27.67,13.8-21.19,0-38.42-20.3-38.42-45.25l-.31-188.48c0-21.2,20.12-38.43,44.86-38.43h181.33c11.54,0,23.94,4.32,32.36,11.29,8.81,7.3,13.66,17.12,13.66,27.65,0,21.19-20.12,38.43-44.86,38.43l-91.19-.27,123.48,123.48c.28.28.54.54.79.81.29.27.54.52.75.72,7.28,7.29,11.28,16.96,11.28,27.25s-4.01,19.98-11.29,27.26l-195.57,195.56c-7.28,7.28-16.96,11.29-27.25,11.29Z" class="cls-1"/>
    <path d="M524.36,217.87c10.32,0,20.82,3.98,27.58,9.57,6.76,5.6,10.94,13.33,10.94,21.87,0,17.08-16.72,30.93-37.36,30.93l-109.35-.32,136.34,136.34c.26.26.51.51.74.78h0c.27.24.53.49.79.75,6.06,6.07,9.09,14.01,9.09,21.95s-3.03,15.9-9.09,21.96l-195.57,195.56c-6.06,6.07-14.01,9.1-21.95,9.1s-15.89-3.03-21.95-9.1l.07-.22c-.99-.76-1.95-1.61-2.86-2.52l-199.11-199.12c-12.13-12.12-12.13-31.78,0-43.9l107.84-107.43c6.06-6.06,14-9.09,21.95-9.09s15.89,3.03,21.95,9.09,9.09,14.01,9.09,21.95-3.03,15.89-9.09,21.95l-85.68,85.69,157.8,157.8.02-.07,152.28-152.28-121.22-121.22.21,119.39c0,10.42-3.46,19.86-9.06,26.69s-13.33,11.06-21.87,11.06c-17.08,0-30.92-16.9-30.92-37.75l-.31-188.49c0-17.08,16.73-30.92,37.36-30.92h181.34M524.36,202.87h-181.34c-13.46,0-26.24,4.44-35.98,12.5-10.41,8.61-16.38,20.8-16.38,33.42l.31,188.52c0,13.52,4.42,26.37,12.45,36.17,8.62,10.52,20.81,16.55,33.47,16.55s24.85-6.03,33.47-16.55c8.04-9.8,12.46-22.66,12.46-36.2l-.14-83.12,84.94,84.94-131.11,131.11-136.56-136.56,75.07-75.08c8.69-8.69,13.48-20.26,13.48-32.56s-4.79-23.86-13.48-32.56-20.26-13.48-32.56-13.48-23.86,4.79-32.56,13.48l-107.82,107.41c-8.72,8.71-13.51,20.27-13.51,32.58s4.79,23.87,13.5,32.56l199.11,199.12c.65.65,1.32,1.28,1.99,1.88.25.29.52.58.79.86,8.7,8.7,20.26,13.5,32.56,13.5s23.87-4.79,32.56-13.5l195.57-195.56c8.7-8.7,13.48-20.26,13.48-32.57s-4.79-23.84-13.47-32.55c-.2-.2-.45-.44-.74-.72-.31-.33-.59-.61-.8-.82l-110.63-110.63,72.99.21c13.51,0,26.29-4.44,36.03-12.51,10.41-8.62,16.37-20.8,16.37-33.42s-5.97-24.8-16.37-33.42c-9.86-8.16-23.75-13.02-37.15-13.02h0Z" class="cls-4"/>
  </g>
  <rect height="257.16" width="257.16" y="217.87" x="305.97" class="cls-2"/>
  <path d="M129.97,279.72l133.28.52c14.47,0,26.2-13.85,26.2-30.93h0c0-17.08-11.73-30.93-26.2-30.93l-133.28-.52c-14.47,0-26.2,13.85-26.2,30.93h0c0,17.08,11.73,30.93,26.2,30.93Z" class="cls-3"/>
  <g>
    <path d="M129.94,286.55c-17.73,0-32.18-16.56-32.18-36.93s14.44-36.93,32.2-36.93l133.3.52c17.73,0,32.18,16.57,32.18,36.93s-14.44,36.93-32.2,36.93c0,0-133.3-.52-133.3-.52Z" class="cls-3"/>
    <path d="M129.97,218.69l133.28.52c14.47,0,26.2,13.85,26.2,30.93h0c0,17.08-11.73,30.93-26.2,30.93l-133.28-.52c-14.47,0-26.2-13.85-26.2-30.93h0c0-17.08,11.73-30.93,26.2-30.93M129.97,206.69c-21.06,0-38.2,19.26-38.2,42.93s17.14,42.93,38.2,42.93l133.23.52c21.11,0,38.25-19.26,38.25-42.93s-17.14-42.93-38.2-42.93l-133.23-.52s-.03,0-.05,0h0Z" class="cls-4"/>
  </g>
</svg>