<?xml version="1.0" encoding="UTF-8"?>
<svg id="Layer_2" data-name="Layer 2" xmlns="http://www.w3.org/2000/svg" viewBox="0 0 304.14 304.04">
  <defs>
    <style>
      .cls-1 {
        fill: #020202;
      }

      .cls-1, .cls-2 {
        stroke-width: 0px;
      }

      .cls-2 {
        fill: #f68922;
      }
    </style>
  </defs>
  <g id="Layer_1-2" data-name="Layer 1">
    <g>
      <path class="cls-1" d="m.47,133.86h15.11c7.37,0,10.18,4.15,10.18,9.87,0,4.98-1.92,8.15-6.34,8.83v.1c4.62.42,6.08,3.38,6.08,8.31v3.17c0,1.92,0,4.36.47,5.14.26.42.47.78,1.09,1.14v.52h-10.28c-.93-1.92-.93-5.56-.93-7.06v-2.49c0-4.21-.83-5.3-3.17-5.3h-2.54v14.85H.47v-37.08Zm9.66,15.68h1.92c2.75,0,4.05-1.77,4.05-4.41,0-3.06-1.19-4.31-4.1-4.31h-1.87v8.72Z"/>
      <path class="cls-1" d="m30.27,133.86h21.96v7.89h-12.31v6.34h11.53v7.58h-11.53v7.37h12.77v7.89h-22.43v-37.08Z"/>
      <path class="cls-1" d="m71.03,145.13c0-4.21-.78-5.45-2.65-5.45-2.91,0-3.27,2.7-3.27,12.72s.36,12.72,3.27,12.72c2.34,0,2.91-2.08,2.91-9.09h9.35v2.75c0,10.39-6.02,12.88-12.25,12.88-10.85,0-13.24-5.4-13.24-19.26s3.22-19.27,13.24-19.27c8.72,0,12,4.57,12,11.74v2.34h-9.35v-2.08Z"/>
      <path class="cls-1" d="m96.26,133.14c9.87,0,13.24,5.4,13.24,19.27s-3.38,19.26-13.24,19.26-13.24-5.4-13.24-19.26,3.38-19.27,13.24-19.27Zm0,31.99c2.91,0,3.27-2.7,3.27-12.72s-.36-12.72-3.27-12.72-3.27,2.7-3.27,12.72.36,12.72,3.27,12.72Z"/>
      <path class="cls-1" d="m112.97,133.86h10.8l6.23,22.85h.1v-22.85h9.04v37.08h-10.59l-6.44-22.9h-.1v22.9h-9.04v-37.08Z"/>
      <path class="cls-1" d="m158.14,144.56v-.88c0-2.23-.88-4-2.75-4-2.08,0-3.01,1.61-3.01,3.27,0,7.32,15.79,3.74,15.79,17.29,0,7.89-4.62,11.42-13.14,11.42-8,0-12.46-2.75-12.46-10.44v-1.3h9.35v.88c0,3.17,1.3,4.31,3.17,4.31,2.02,0,3.12-1.56,3.12-3.58,0-7.32-15.16-3.69-15.16-16.82,0-7.53,4-11.58,12.15-11.58s12,3.48,12,11.42h-9.04Z"/>
      <path class="cls-1" d="m176.47,142.07h-7.27v-8.2h24.2v8.2h-7.27v28.87h-9.66v-28.87Z"/>
      <path class="cls-1" d="m195.58,133.86h15.11c7.37,0,10.18,4.15,10.18,9.87,0,4.98-1.92,8.15-6.34,8.83v.1c4.62.42,6.08,3.38,6.08,8.31v3.17c0,1.92,0,4.36.47,5.14.26.42.47.78,1.09,1.14v.52h-10.28c-.93-1.92-.93-5.56-.93-7.06v-2.49c0-4.21-.83-5.3-3.17-5.3h-2.54v14.85h-9.66v-37.08Zm9.66,15.68h1.92c2.75,0,4.05-1.77,4.05-4.41,0-3.06-1.19-4.31-4.1-4.31h-1.87v8.72Z"/>
      <path class="cls-1" d="m234.62,133.86v26.74c0,3.58,1.09,4.52,2.91,4.52s2.91-.93,2.91-4.52v-26.74h9.66v24.3c0,10.39-4.47,13.5-12.57,13.5s-12.57-3.12-12.57-13.5v-24.3h9.66Z"/>
      <path class="cls-1" d="m269.04,145.13c0-4.21-.78-5.45-2.65-5.45-2.91,0-3.27,2.7-3.27,12.72s.36,12.72,3.27,12.72c2.34,0,2.91-2.08,2.91-9.09h9.35v2.75c0,10.39-6.02,12.88-12.25,12.88-10.85,0-13.24-5.4-13.24-19.26s3.22-19.27,13.24-19.27c8.72,0,12,4.57,12,11.74v2.34h-9.35v-2.08Z"/>
      <path class="cls-1" d="m287,142.07h-7.27v-8.2h24.2v8.2h-7.27v28.87h-9.66v-28.87Z"/>
    </g>
    <g>
      <polygon class="cls-2" points="151.91 14.01 135.85 0 0 0 0 117.16 27.34 117.16 27.34 27.34 136.16 27.34 151.91 14.01"/>
      <polygon class="cls-2" points="153.28 0 169.5 14.14 153.91 27.34 276.53 27.34 276.53 117.16 303.87 117.16 303.87 0 153.28 0"/>
    </g>
    <g>
      <polygon class="cls-2" points="133.85 290.12 149.69 276.71 27.61 276.71 27.61 186.88 .27 186.88 .27 304.04 149.81 304.04 133.85 290.12"/>
      <polygon class="cls-2" points="276.8 186.88 276.8 276.71 167.44 276.71 151.43 290.25 167.25 304.04 304.14 304.04 304.14 186.88 276.8 186.88"/>
    </g>
  </g>
</svg>